# xmcd
#
# Track frame offsets:
#  150
#  20385
#  40474
#  66215
#  94018
#  114755
#  137108
#  158984
#  181055
#  213891
#
# Disc length: 3096 seconds
#
# Revision: 1
# Processed by: cddbd v1.5PL3 Copyright (c) Steve Scherf et al.
# Submitted via: AltoMP3_Maker 3.0
#
DISCID=7e0c160a
DTITLE=Groove Hogs - No Small Feat
DYEAR=1900
DGENRE=
TTITLE0=Tall And Proud
TTITLE1=It Takes Two
TTITLE2=In And Out Of Love
TTITLE3=Been There Done That
TTITLE4=Don T Sweat The Small Stuff
TTITLE5=Suzanne's Song
TTITLE6=Any Better Than This
TTITLE7=Ingrown Tonation
TTITLE8=Do You Know How It Feels
TTITLE9=Same Old Story
EXTD=
EXTT0=
EXTT1=
EXTT2=
EXTT3=
EXTT4=
EXTT5=
EXTT6=
EXTT7=
EXTT8=
EXTT9=
PLAYORDER=
